HIERARCHY
ROOT Hips
{
    OFFSET 0.0 0.0 0.0
    CHANNELS 6 Xposition Yposition Zposition Zrotation Xrotation Yrotation
    JOINT LeftHipJoint
    {
        OFFSET 0.1 0.0 0.0
        CHANNELS 3 Zrotation Xrotation Yrotation
        JOINT LeftUpLeg
        {
            OFFSET 8.485575675964355 0.0 0.0
            CHANNELS 3 Zrotation Xrotation Yrotation
            JOINT LeftLeg
            {
                OFFSET 0.0 0.0 -33.372833251953125
                CHANNELS 3 Zrotation Xrotation Yrotation
                JOINT LeftFoot
                {
                    OFFSET 0.0 0.0 -38.59461975097656
                    CHANNELS 3 Zrotation Xrotation Yrotation
                    End Site
                    {
                        OFFSET 0.0 -0.1 0.0
                    }
                }
            }
        }
    }
    JOINT LowerBack
    {
        OFFSET 0.0 0.0 0.1
        CHANNELS 3 Zrotation Xrotation Yrotation
        JOINT Spine
        {
            OFFSET 0.0 0.0 20.347373962402344
            CHANNELS 3 Zrotation Xrotation Yrotation
            JOINT Spine1
            {
                OFFSET 0.0 0.0 23.142465591430664
                CHANNELS 3 Zrotation Xrotation Yrotation
                JOINT LeftShoulder
                {
                    OFFSET 0.1 0.0 0.0
                    CHANNELS 3 Zrotation Xrotation Yrotation
                    JOINT LeftArm
                    {
                        OFFSET 10.98111343383789 0.0 0.0
                        CHANNELS 3 Zrotation Xrotation Yrotation
                        JOINT LeftForeArm
                        {
                            OFFSET 20.966115951538086 0.0 0.0
                            CHANNELS 3 Zrotation Xrotation Yrotation
                            JOINT LeftHand
                            {
                                OFFSET 16.906768798828125 0.0 0.0
                                CHANNELS 3 Zrotation Xrotation Yrotation
                                End Site
                                {
                                    OFFSET 0.1 0.0 0.0
                                }
                            }
                        }
                    }
                }
                JOINT Neck
                {
                    OFFSET 0.0 0.0 0.1
                    CHANNELS 3 Zrotation Xrotation Yrotation
                    JOINT Neck1
                    {
                        OFFSET 0.0 0.0 10.729504585266113
                        CHANNELS 3 Zrotation Xrotation Yrotation
                        End Site
                        {
                            OFFSET 0.0 0.0 10.956161499023438
                        }
                    }
                }
                JOINT RightShoulder
                {
                    OFFSET -0.1 0.0 0.0
                    CHANNELS 3 Zrotation Xrotation Yrotation
                    JOINT RightArm
                    {
                        OFFSET -10.98111343383789 0.0 0.0
                        CHANNELS 3 Zrotation Xrotation Yrotation
                        JOINT RightForeArm
                        {
                            OFFSET -20.966115951538086 0.0 0.0
                            CHANNELS 3 Zrotation Xrotation Yrotation
                            JOINT RightHand
                            {
                                OFFSET -16.906768798828125 0.0 0.0
                                CHANNELS 3 Zrotation Xrotation Yrotation
                                End Site
                                {
                                    OFFSET -0.1 0.0 0.0
                                }
                            }
                        }
                    }
                }
            }
        }
    }
    JOINT RightHipJoint
    {
        OFFSET -0.1 0.0 0.0
        CHANNELS 3 Zrotation Xrotation Yrotation
        JOINT RightUpLeg
        {
            OFFSET -8.485575675964355 0.0 0.0
            CHANNELS 3 Zrotation Xrotation Yrotation
            JOINT RightLeg
            {
                OFFSET 0.0 0.0 -33.372833251953125
                CHANNELS 3 Zrotation Xrotation Yrotation
                JOINT RightFoot
                {
                    OFFSET 0.0 0.0 -38.59461975097656
                    CHANNELS 3 Zrotation Xrotation Yrotation
                    End Site
                    {
                        OFFSET 0.0 -0.1 0.0
                    }
                }
            }
        }
    }
}
MOTION
Frames: 8
Frame Time: 0.03333333333333333
0.00015687037375755608 78.54488372802734 -0.0008884051349014044 -88.58396664785982 -42.85351320111023 -94.03602656914458 8.827812596100317e-32 -1.5902773407317582e-15 6.361109362927033e-15 -3.9418490120745355 -24.729141248207256 -10.954551090861024 -0.9551738311747454 30.717020102941575 5.092549484376899 -3.1805546814635164e-15 1.5902773407317584e-15 -3.1805546814635164e-15 8.827812596100317e-32 -1.5902773407317582e-15 6.361109362927033e-15 1.306671710077915 8.675283065894403 5.9542761507811335 1.350866617640808 -1.8453924498642294e-06 -1.311081240009132e-06 -3.180554681463516e-15 6.361109362927032e-15 1.7655625192200634e-31 -11.81461685234966 -14.365044040536887 61.24176381037315 -121.00977255470394 -3.2876839887663067e-06 8.117362670111703e-07 0.0 0.0 0.0 -3.180554681463516e-15 6.361109362927032e-15 1.7655625192200634e-31 5.535348013464383 3.5348230344716307 -6.247845318659975 -3.180554681463516e-15 6.361109362927032e-15 1.7655625192200634e-31 20.524098474780978 -1.6448114534405354 -62.437555377605065 119.69755560078845 -4.868993808482732e-06 -2.700336955516407e-06 7.951386703658792e-16 4.4139062980501586e-32 6.3611093629270335e-15 8.827812596100317e-32 -1.5902773407317582e-15 6.361109362927033e-15 -2.3612129076156205 -15.399256000952551 -1.466428709866069 7.5515236737595695 45.45529146406287 -2.788087235697109 4.4139062980501586e-32 7.951386703658791e-16 -6.361109362927033e-15
0.00021735808695666492 78.54503631591797 -0.0008632459794171154 -88.34088853770103 -41.5707568929732 -93.95338272875456 -3.1805546814635168e-15 8.827812596100317e-32 -3.1805546814635168e-15 -3.5520202691763054 -23.1124970219215 -11.181530121121478 -1.217665182743948 28.92629484361458 5.082253051101788 3.1805546814635168e-15 6.3611093629270335e-15 3.1805546814635168e-15 -3.1805546814635168e-15 8.827812596100317e-32 -3.1805546814635168e-15 1.2513987492417171 8.544270077230921 6.569550478298594 2.4009908020756474 3.272801413809019e-06 2.351070696201649e-06 -6.3611093629270335e-15 7.951386703658792e-15 3.1805546814635176e-15 -12.694316022087484 -11.961777958904934 60.956956546350874 -122.21298203786468 1.8943884483956885e-06 -2.2133445104727777e-06 -1.7655625192200634e-31 -6.361109362927035e-15 -3.1805546814635176e-15 -6.3611093629270335e-15 7.951386703658792e-15 3.1805546814635176e-15 5.664498871094193 3.4494697562558256 -6.818216338988523 -6.3611093629270335e-15 7.951386703658792e-15 3.1805546814635176e-15 22.38483992973145 -0.68449031183805 -61.58098622525826 118.29829653825959 -5.975965418477667e-07 2.635144357671996e-06 -3.975693351829396e-15 -3.1805546814635168e-15 6.3611093629270335e-15 -3.1805546814635168e-15 8.827812596100317e-32 -3.1805546814635168e-15 -2.2333626337569243 -14.994204358757752 -0.78973826958512 8.460651026137175 47.07311846250986 -2.5855159517491595 -1.5902773407317584e-15 -7.951386703658792e-16 -7.951386703658792e-16
0.0002848006843123585 78.54517364501953 -0.0009015692048706114 -87.95329727774858 -40.931815677412544 -93.33254506818709 0.0 0.0 -3.1805546814635176e-15 -3.417295715232397 -22.784504872427462 -11.287318625489505 -1.378945158827038 28.577862907553406 4.58459457520856 0.0 -6.3611093629270335e-15 0.0 0.0 0.0 -3.1805546814635176e-15 1.1642808261436746 8.137570821839821 6.294574165364311 2.256731796338038 2.3088532141053607e-06 -9.712364884963318e-07 3.1805546814635164e-15 -4.770832022195274e-15 1.3241718894150476e-31 -13.120212328358067 -12.32202631268193 61.70403738339424 -120.41234908125082 -1.6222672686522037e-06 -5.407278550477895e-07 -3.1805546814635176e-15 6.361109362927035e-15 1.7655625192200634e-31 3.1805546814635164e-15 -4.770832022195274e-15 1.3241718894150476e-31 6.290592686383448 3.1462386786466587 -6.819770059828838 3.1805546814635164e-15 -4.770832022195274e-15 1.3241718894150476e-31 23.439211740493363 0.612349759052511 -61.059570797849936 118.54456129339222 4.158459382281482e-06 -5.205837541111682e-06 1.5902773407317584e-15 3.1805546814635168e-15 -4.4139062980501586e-32 0.0 0.0 -3.1805546814635176e-15 -2.162105593295434 -14.856755126572194 -0.7914575562487258 8.228167568383832 47.018834534464965 -2.443241631108639 -1.5902773407317588e-15 6.361109362927033e-15 7.95138670365879e-15
0.00023359089391306043 78.5452880859375 -0.0009947165381163359 -88.15486439675414 -39.075408914013636 -93.31690802881212 3.1805546814635168e-15 0.0 0.0 -2.6178452576479123 -19.290951991629864 -9.958153213260461 -1.0250406512457362 26.144358290614644 2.2511202204621226 3.1805546814635164e-15 0.0 0.0 3.1805546814635168e-15 0.0 0.0 1.172648437179916 8.900246068944435 6.949356951813952 2.3771242670743535 -3.5262506879163833e-06 -1.0775482327881842e-06 0.0 0.0 0.0 -12.246890544228338 -12.543838673745556 61.67284596310365 -121.5789797845762 -3.444213630499595e-06 1.974213317105346e-06 0.0 0.0 3.180554681463516e-15 0.0 0.0 0.0 6.12646547476037 2.613800705040212 -7.627605016569048 0.0 0.0 0.0 26.739340938087782 0.18323600127875156 -59.73651652923623 119.78877181330448 2.424349084829834e-06 2.7289477855359074e-07 1.5902773407317582e-15 3.1805546814635164e-15 -4.4139062980501586e-32 3.1805546814635168e-15 0.0 0.0 -1.804783199920519 -13.536975064897657 -0.8113832232374698 7.411782781129914 46.965293287780135 -0.24100541463376826 -3.1805546814635168e-15 -6.3611093629270335e-15 -1.5902773407317584e-15
0.00015629315748810768 78.54547119140625 -0.0010837549343705177 -87.37740887162155 -38.47959370477097 -92.42133805974879 -1.7655625192200634e-31 6.3611093629270335e-15 3.1805546814635168e-15 -2.919549616589321 -19.461336613411905 -9.181631377043747 -0.23468937833899775 25.692488491041388 -0.42708651686451504 -3.531125038440127e-31 6.361109362927033e-15 6.361109362927033e-15 -1.7655625192200634e-31 6.3611093629270335e-15 3.1805546814635168e-15 1.199256553392242 8.24967319689532 6.648257041492386 2.639237165220662 -6.535925490463351e-07 3.845639006690485e-06 3.1805546814635176e-15 6.361109362927035e-15 3.1805546814635176e-15 -11.940122496952517 -10.553544694291542 63.01410083727904 -119.85763811428987 1.4688000045573996e-06 1.049646996723361e-06 0.0 0.0 3.1805546814635168e-15 3.1805546814635176e-15 6.361109362927035e-15 3.1805546814635176e-15 6.4845245948105195 2.4035298655100448 -7.7291069192008575 3.1805546814635176e-15 6.361109362927035e-15 3.1805546814635176e-15 30.654510298851932 1.5640074115305485 -60.88663080690423 120.07551508581827 -3.15784344594275e-06 1.3929611482930666e-06 0.0 0.0 0.0 -1.7655625192200634e-31 6.3611093629270335e-15 3.1805546814635168e-15 -2.0319187142205046 -13.786550000170333 -1.2505364885797399 7.474762347962314 45.7191492920395 -0.44544329799406046 -3.1805546814635164e-15 6.361109362927033e-15 1.5902773407317584e-15
-4.078069468960166e-05 78.54556274414062 -0.0012574661523103714 -87.33920538136348 -38.22241631322648 -92.37322868448477 6.3611093629270335e-15 6.3611093629270335e-15 -3.531125038440127e-31 -2.852431867713984 -19.00579595681264 -9.177460915720232 -0.2285515632259395 25.13383530940257 -0.08717828399419114 0.0 0.0 3.1805546814635168e-15 6.3611093629270335e-15 6.3611093629270335e-15 -3.531125038440127e-31 1.2427195038684644 8.522702738950992 7.4322865108565335 2.160716252679104 -1.5732864413659033e-07 -3.5157896650696388e-06 0.0 1.5902773407317584e-15 0.0 -9.880905692059565 -11.623685874701266 62.55690860275968 -116.78511242385682 -4.3730462921757353e-07 7.348521138781745e-07 3.1805546814635168e-15 -3.1805546814635168e-15 6.3611093629270335e-15 0.0 1.5902773407317584e-15 0.0 6.599114062435829 3.7436465567848836 -7.856935229048779 0.0 1.5902773407317584e-15 0.0 34.342198841447285 3.9767020522837675 -61.76661397236615 121.61544434012696 8.262941667430974e-08 -3.14202308708246e-06 0.0 0.0 0.0 6.3611093629270335e-15 6.3611093629270335e-15 -3.531125038440127e-31 -2.2938504430662947 -15.437440926584458 -2.8933948832160294 5.725482268121795 45.11417122002325 1.9750150415291785 6.3611093629270335e-15 6.3611093629270335e-15 -1.5902773407317588e-15
-0.00020288889936637133 78.54570007324219 -0.0014050941681489348 -86.48943985797003 -39.643149016196865 -91.95907949679146 -3.1805546814635168e-15 -8.827812596100317e-32 3.1805546814635168e-15 -2.6062333880396573 -18.611257817143123 -8.365494617612358 -0.11663560222680486 24.50433342870327 0.8614839324235385 -3.1805546814635168e-15 -1.5902773407317584e-15 3.1805546814635168e-15 -3.1805546814635168e-15 -8.827812596100317e-32 3.1805546814635168e-15 1.2588827667107882 9.2226394734281 8.363424162517996 -0.3265369815275544 -4.709297318087174e-07 -8.014003723146433e-07 6.361109362927033e-15 -1.7655625192200634e-31 -3.1805546814635164e-15 -4.75530430097808 -13.168257462411262 61.41259599883104 -114.8453088377575 -1.836427626684568e-06 1.217787767138414e-06 3.1805546814635168e-15 -3.1805546814635168e-15 -3.1805546814635168e-15 6.361109362927033e-15 -1.7655625192200634e-31 -3.1805546814635164e-15 5.227090582657712 3.750935237912861 -8.058090304054463 6.361109362927033e-15 -1.7655625192200634e-31 -3.1805546814635164e-15 36.65437019406568 3.047714852756648 -61.35429293681036 119.68083987131176 1.4437643698764363e-06 1.7310150982793959e-06 7.95138670365879e-16 -3.180554681463516e-15 2.2069531490250793e-32 -3.1805546814635168e-15 -8.827812596100317e-32 3.1805546814635168e-15 -2.571199216921261 -18.307911666630933 -3.9155459885218686 4.782432894641917 48.43761064159874 3.399719450703055 0.0 0.0 -6.361109362927035e-15
-0.0002493794308975339 78.54576110839844 -0.001435826881788671 -84.14855974671691 -39.99367686878037 -90.52941354775812 0.0 -1.5902773407317584e-15 0.0 -2.7047936047234833 -20.236725524960768 -8.62978151128126 -0.397580587197513 24.77759206129752 1.6120027499623835 3.1805546814635164e-15 -1.5902773407317582e-15 4.4139062980501586e-32 0.0 -1.5902773407317584e-15 0.0 1.2133948191288095 9.374525038865947 9.413695183253727 -0.20070871799110518 -2.320947733280699e-06 -4.780687034004455e-07 3.1805546814635164e-15 0.0 0.0 -4.45414828312899 -14.660323163789473 59.20000001164504 -111.83903232941363 6.096584669375375e-06 -3.4150491693505614e-06 0.0 0.0 0.0 3.1805546814635164e-15 0.0 0.0 5.093689904867547 2.7247404625166114 -7.824369818383627 3.1805546814635164e-15 0.0 0.0 33.93386726954595 4.901297346265007 -57.733647819377744 115.75779791533587 -3.8808497859207035e-06 2.2197894022450773e-06 -1.5902773407317584e-15 -8.827812596100317e-32 6.3611093629270335e-15 0.0 -1.5902773407317584e-15 0.0 -2.436967089795562 -18.30709815092797 -3.5324418295261024 4.167458418367732 44.74698432953107 4.372164897863895 -3.1805546814635164e-15 -5.5659706925611536e-15 -3.1805546814635164e-15
